<svg width="133" height="133" viewBox="0 0 133 133" fill="none" xmlns="http://www.w3.org/2000/svg">
<g clip-path="url(#clip0_572_24)">
<path fill-rule="evenodd" clip-rule="evenodd" d="M3.62403 18.1548C0 25.2674 0 34.5783 0 53.2V79.8C0 98.4217 0 107.733 3.62403 114.845C6.81182 121.102 11.8984 126.188 18.1548 129.376C25.2674 133 34.5783 133 53.2 133H79.8C98.4217 133 107.733 133 114.845 129.376C121.102 126.188 126.188 121.102 129.376 114.845C133 107.733 133 98.4217 133 79.8V53.2C133 34.5783 133 25.2674 129.376 18.1548C126.188 11.8984 121.102 6.81182 114.845 3.62403C107.733 0 98.4217 0 79.8 0H53.2C34.5783 0 25.2674 0 18.1548 3.62403C11.8984 6.81182 6.81182 11.8984 3.62403 18.1548ZM50.9114 87.5605C50.9114 103.973 60.8499 110.833 74.1828 110.833H88.9958V93.395H81.1718C75.6574 93.395 72.1961 91.0238 72.1961 84.1632V61.2753H88.3502V44.734H72.1961V22.1667H58.3513C57.7059 32.1046 52.1301 43.58 38.7917 47.0428V61.2753H50.9114V87.5605Z" fill="black"/>
</g>
<defs>
<clipPath id="clip0_572_24">
<rect width="133" height="133" fill="white"/>
</clipPath>
</defs>
</svg>
