<svg width="133" height="133" viewBox="0 0 133 133" fill="none" xmlns="http://www.w3.org/2000/svg">
<g clip-path="url(#clip0_572_22)">
<path fill-rule="evenodd" clip-rule="evenodd" d="M0 53.2C0 34.5783 0 25.2674 3.62403 18.1548C6.81182 11.8984 11.8984 6.81182 18.1548 3.62403C25.2674 0 34.5783 0 53.2 0H79.8C98.4217 0 107.733 0 114.845 3.62403C121.102 6.81182 126.188 11.8984 129.376 18.1548C133 25.2674 133 34.5783 133 53.2V79.8C133 98.4217 133 107.733 129.376 114.845C126.188 121.102 121.102 126.188 114.845 129.376C107.733 133 98.4217 133 79.8 133H53.2C34.5783 133 25.2674 133 18.1548 129.376C11.8984 126.188 6.81182 121.102 3.62403 114.845C0 107.733 0 98.4217 0 79.8V53.2ZM16.625 66.5C16.625 38.9565 38.9441 16.625 66.5 16.625C94.0435 16.625 116.375 38.9565 116.375 66.5C116.375 88.5073 102.098 107.21 82.1441 113.752C79.588 114.251 78.7152 112.693 78.7152 111.383C78.7152 110.848 78.722 109.906 78.7311 108.642C78.7496 106.079 78.7776 102.197 78.7776 97.7259C78.7776 93.0543 77.1566 89.9953 75.411 88.499C86.5082 87.2729 98.1665 83.0543 98.1665 63.894C98.1665 58.4493 96.2338 54.0022 93.0543 50.5109C93.553 49.2516 95.2363 44.1809 92.5555 37.3107C92.5555 37.3107 88.3785 35.9723 78.9022 42.4228C74.9123 41.3131 70.6729 40.7645 66.4335 40.7396C62.1941 40.7645 57.9547 41.3131 53.9647 42.4228C44.4262 35.9723 40.2491 37.3107 40.2491 37.3107C37.5683 44.1809 39.2516 49.2516 39.8127 50.5109C36.6124 54.0022 34.6797 58.4493 34.6797 63.894C34.6797 83.0045 46.3214 87.2937 57.3978 88.5406C55.9722 89.7875 54.6879 91.9861 54.2391 95.2114C51.3879 96.4873 44.1602 98.6902 39.713 91.0634C39.713 91.0634 37.0821 86.2754 32.0738 85.9263C32.0738 85.9263 27.2068 85.864 31.7247 88.9562C31.7247 88.9562 35.0039 90.494 37.2732 96.2504C37.2732 96.2504 40.1992 105.951 54.0728 102.942C54.0844 105.25 54.1023 107.244 54.116 108.764C54.1269 109.981 54.1352 110.894 54.1352 111.421C54.1352 112.747 53.2208 114.289 50.727 113.819C30.9142 107.231 16.625 88.5406 16.625 66.5Z" fill="black"/>
</g>
<defs>
<clipPath id="clip0_572_22">
<rect width="133" height="133" fill="white"/>
</clipPath>
</defs>
</svg>
